<?xml version="1.0" encoding="utf-8"?>
<!-- Generator: Adobe Illustrator 16.0.0, SVG Export Plug-In . SVG Version: 6.00 Build 0)  -->
<!DOCTYPE svg PUBLIC "-//W3C//DTD SVG 1.1//EN" "http://www.w3.org/Graphics/SVG/1.1/DTD/svg11.dtd">
<svg version="1.1" id="Layer_2" xmlns="http://www.w3.org/2000/svg" xmlns:xlink="http://www.w3.org/1999/xlink" x="0px" y="0px"
	 width="107px" height="53px" viewBox="0 0 107 53" enable-background="new 0 0 107 53" xml:space="preserve">
<g>
	<path fill="#404041" d="M16.745,26.312L16.3,25.347c-1.174,0.625-2.559,1.227-3.604,1.227h-0.757c-0.811,0-3.291-0.573-3.291-3.812
		v-0.991c0-1.41,0.679-3.554,4.048-3.554h3.161v-0.991c0-0.341-0.236-0.521-0.497-0.521h-4.937v-3.031h6.4
		c2.009,0,2.794,1.279,2.794,2.768v9.873h-2.872V26.312z M15.857,20.724h-3.265c-0.209,0-0.523,0.105-0.523,0.495v1.308
		c0,0.521,0.366,1.017,1.019,1.017c0.942,0,1.882-0.261,2.77-0.494L15.857,20.724L15.857,20.724z"/>
	<path fill="#404041" d="M28.131,16.962c-0.756,0-2.115,0.184-3.29,0.365v8.984h-3.918V13.67h3.422l0.392,0.782
		c1.228-0.495,2.743-1.045,3.891-1.045v3.554L28.131,16.962L28.131,16.962z"/>
	<path fill="#404041" d="M34.713,26.573c-0.497,0-3.787-0.262-3.787-4.57v-5.041h-1.515v-3.291h1.515l0.496-2.01h3.291v2.01h3.789
		v3.291h-3.789v4.283c0,0.496,0,1.777,1.254,1.777c1.123,0,3.057-0.263,3.057-0.263v3.056C37.797,26.13,36.595,26.573,34.713,26.573
		z"/>
	<path fill="#404041" d="M56.418,26.312v-8.438c0-1.067-0.131-2.609-2.143-2.609c-1.019,0-3.475,0.705-3.942,0.836
		c0.104,0.523,0.182,1.148,0.182,1.881v8.33h-1.984v-8.773c-0.053-1.02-0.339-2.272-2.142-2.272c-1.123,0-3.71,0.81-3.71,0.81
		v10.238h-1.958V13.672h1.46l0.394,0.94c0,0,2.612-1.203,4.256-1.203c0.968,0,2.195,0.104,2.952,1.308
		c1.359-0.626,3.656-1.308,4.938-1.308c1.516,0,3.684,0.263,3.684,4.572v8.33H56.418z"/>
	<path fill="#404041" d="M63.626,26.573c-0.496,0-3.786-0.262-3.786-4.57v-4.021c0-2.271,1.279-4.311,4.309-4.311H65.9
		c3.211,0,4.047,1.959,4.047,3.553v2.532c0,0.812-0.469,1.255-1.045,1.255h-7.104v1.645c0,1.021,0.914,2.039,2.142,2.039
		c2.457,0,5.406-0.471,6.244-0.732v1.673C70.184,25.634,67.675,26.573,63.626,26.573z M68.197,17.249
		c0-1.098-0.574-1.881-1.881-1.881h-2.639c-1.305,0-1.88,0.783-1.88,1.881v2.221h6.399V17.249z"/>
	<path fill="#404041" d="M81.309,26.312l-0.365-0.781c-0.602,0.209-3.266,1.043-5.771,1.043c-0.861,0-3.686-0.262-3.686-4.569
		v-4.021c0-2.509,1.49-4.312,4.181-4.312h5.226v-3.526h1.959v16.168h-1.543V26.312z M80.891,15.421h-5.562
		c-1.331,0-1.906,0.602-1.906,1.881v5.301c0,1.596,1.07,2.092,2.036,2.092c1.828,0,5.435-0.68,5.435-0.68v-8.594H80.891z"/>
	<path fill="#404041" d="M84.312,12.157V9.856h2.271v2.301H84.312z M84.469,26.312V13.671H86.4v12.641H84.469z"/>
	<path fill="#404041" d="M96.744,26.312l-0.471-0.965c-1.121,0.443-2.767,1.227-4.52,1.227h-0.756c-1.2,0-3.291-0.858-3.291-3.812
		V22.03c0-1.123,0.471-3.551,4.048-3.551h4.362v-1.752c0-0.705-0.285-1.306-1.488-1.306h-5.145v-1.75h5.719
		c2.012,0,2.82,1.278,2.82,2.769v9.873h-1.279V26.312z M96.117,20.095h-4.885c-1.069,0-1.619,0.837-1.619,1.333v1.438
		c0,1.201,0.889,1.904,1.906,1.904c1.541,0,3.735-0.601,4.598-0.861V20.095z"/>
	<path fill="#404041" d="M18.985,44.75c0,0-3.492,0.839-6.78,0.839c-0.431,0-3.287-0.227-3.287-3.968v-5.917
		c0-2.223,1.361-3.719,3.741-3.719h5.238v1.701h-5.804c-0.886,0-1.337,0.521-1.337,1.36v6.231c0,1.609,0.521,2.496,2.017,2.496
		c1.475,0,3.039-0.16,4.421-0.365v-4.76l1.792-0.022L18.985,44.75L18.985,44.75z"/>
	<path fill="#404041" d="M32.978,45.362l-1.112-2.631h-7.324l-1.087,2.631h-1.972l5.94-13.377h1.699l5.941,13.377H32.978z
		 M28.17,33.776l-3.039,7.414h6.168L28.17,33.776z"/>
	<path fill="#404041" d="M37.22,45.362V31.985h1.791v11.653h6.303v1.724H37.22L37.22,45.362z"/>
	<path fill="#404041" d="M48.719,45.362V31.985h1.79v11.653h6.304v1.724H48.719L48.719,45.362z"/>
	<path fill="#404041" d="M60.215,45.362V31.985H68.9v1.633h-6.894v4.08h6.235v1.563h-6.235v4.377h7.099v1.724H60.215L60.215,45.362z
		"/>
	<path fill="#404041" d="M80.217,41.167l2.697,4.195h-2.086l-2.312-3.767c-0.273,0.024-0.521,0.024-0.703,0.024h-3.445v3.74h-1.744
		V31.983h5.895c2.198,0,4.329,1.111,4.329,4.398v0.861C82.846,39.534,81.555,40.647,80.217,41.167z M81.1,36.044
		c0-2.041-1.563-2.447-2.652-2.447h-4.08v6.484h3.4c1.995,0,3.332-0.795,3.332-2.744V36.044z"/>
	<path fill="#404041" d="M91.918,40.806v4.557h-2.041v-4.557l-5.441-8.82h2.27l4.195,7.506l4.353-7.506h1.881L91.918,40.806z"/>
</g>
</svg>
